<svg width="24" height="13" viewBox="0 0 24 13" fill="none" xmlns="http://www.w3.org/2000/svg">
<path d="M22.4851 4.57337L18.7482 0.797833C18.5668 0.615031 18.32 0.512207 18.0626 0.512207C17.8051 0.512207 17.5583 0.615031 17.377 0.797833H17.377C17.0026 1.17446 17.0026 1.78272 17.377 2.15934L20.8146 5.62588H1.12577C0.592475 5.62588 0.160156 6.0582 0.160156 6.59149C0.160156 7.12479 0.592475 7.5571 1.12577 7.5571H20.8725L17.377 11.043C17.1942 11.2243 17.0914 11.4711 17.0914 11.7285C17.0914 11.986 17.1942 12.2328 17.377 12.4141C17.5583 12.5969 17.8051 12.6997 18.0626 12.6997C18.32 12.6997 18.5668 12.5969 18.7482 12.4141L22.4851 8.66756C23.6147 7.53657 23.6147 5.70436 22.4851 4.57337Z" fill="#1D80C4"/>
</svg>
