<svg width="24" height="13" viewBox="0 0 24 13" fill="none" xmlns="http://www.w3.org/2000/svg">
<path d="M23.0026 4.57288L19.2657 0.797345C19.0844 0.614542 18.8376 0.511719 18.5801 0.511719C18.3227 0.511719 18.0759 0.614543 17.8946 0.797345H17.8946C17.5202 1.17397 17.5202 1.78223 17.8946 2.15885L21.3321 5.6254H1.64334C1.11005 5.6254 0.677734 6.05771 0.677734 6.59101C0.677734 7.1243 1.11005 7.55662 1.64334 7.55662H21.3901L17.8946 11.0425C17.7118 11.2238 17.6089 11.4706 17.6089 11.7281C17.6089 11.9855 17.7118 12.2323 17.8946 12.4136C18.0759 12.5964 18.3227 12.6993 18.5801 12.6993C18.8376 12.6993 19.0844 12.5964 19.2657 12.4136L23.0026 8.66707C24.1322 7.53608 24.1322 5.70387 23.0026 4.57288Z" fill="#0CA7B6"/>
</svg>
