<svg width="31" height="17" viewBox="0 0 31 17" fill="none" xmlns="http://www.w3.org/2000/svg">
<path d="M29.3247 5.33451L24.4161 0.375182C24.178 0.135063 23.8538 0 23.5156 0C23.1774 0 22.8532 0.135064 22.615 0.375182C22.1232 0.869893 22.1232 1.66887 22.615 2.16358L27.1304 6.71703H1.26837C0.567868 6.71703 -1.51201e-07 7.2849 0 7.9854C0 8.6859 0.567868 9.25377 1.26837 9.25377H27.2065L22.615 13.8326C22.3749 14.0707 22.2398 14.3949 22.2398 14.7331C22.2398 15.0713 22.3749 15.3955 22.615 15.6337C22.8532 15.8738 23.1774 16.0088 23.5156 16.0088C23.8538 16.0088 24.178 15.8738 24.4161 15.6337L29.3247 10.7124C30.8085 9.22679 30.8085 6.82011 29.3247 5.33451Z" fill="white"/>
</svg>
