<svg width="24" height="13" viewBox="0 0 24 13" fill="none" xmlns="http://www.w3.org/2000/svg">
<path d="M22.5183 4.3512L18.7814 0.575665C18.6 0.392863 18.3532 0.290039 18.0958 0.290039C17.8383 0.290039 17.5915 0.392863 17.4102 0.575665H17.4102C17.0358 0.952289 17.0358 1.56055 17.4102 1.93718L20.8478 5.40372H1.15897C0.625678 5.40372 0.193359 5.83604 0.193359 6.36933C0.193359 6.90262 0.625678 7.33494 1.15897 7.33494H20.9057L17.4102 10.8208C17.2274 11.0021 17.1246 11.2489 17.1246 11.5064C17.1246 11.7638 17.2274 12.0106 17.4102 12.192C17.5915 12.3748 17.8383 12.4776 18.0958 12.4776C18.3532 12.4776 18.6 12.3748 18.7814 12.192L22.5183 8.44539C23.6479 7.3144 23.6479 5.48219 22.5183 4.3512Z" fill="#F7C042"/>
</svg>
