<svg xmlns="http://www.w3.org/2000/svg" xmlns:xlink="http://www.w3.org/1999/xlink" width="2291" height="737" viewBox="0 0 2291 737">
  <defs>
    <linearGradient id="linear-gradient" y1="0.5" x2="1" y2="0.5" gradientUnits="objectBoundingBox">
      <stop offset="0" stop-color="#124d95"/>
      <stop offset="0.586" stop-color="#156fb8"/>
      <stop offset="1" stop-color="#2086c8"/>
    </linearGradient>
    <linearGradient id="linear-gradient-2" y1="0.5" x2="1" y2="0.5" gradientUnits="objectBoundingBox">
      <stop offset="0" stop-color="#ff9a66"/>
      <stop offset="1" stop-color="#f0e620"/>
    </linearGradient>
    <linearGradient id="linear-gradient-3" y1="0.5" x2="1" y2="0.5" gradientUnits="objectBoundingBox">
      <stop offset="0" stop-color="#00c8cd"/>
      <stop offset="1" stop-color="#31727c"/>
    </linearGradient>
    <clipPath id="clip-Artboard_1">
      <rect width="2291" height="737"/>
    </clipPath>
  </defs>
  <g id="Artboard_1" data-name="Artboard – 1" clip-path="url(#clip-Artboard_1)">
    <g id="Group_9932" data-name="Group 9932" transform="translate(114.677 5.316)">
      <g id="Group_9896" data-name="Group 9896" transform="translate(581.941 59.241)">
        <path id="Path_433" data-name="Path 433" d="M211.411,59.241V618.693h-94.3V59.241Zm-38.367,0H289.738q61.526,0,106.293,21.577,44.746,21.58,69.929,60.345t25.178,91.506q0,52.751-25.178,91.912t-69.929,60.745Q351.261,406.9,289.738,406.9H173.044V328.577H285.737q32.758,0,56.744-10.791t37.566-31.962q13.575-21.171,13.585-50.756,0-30.362-13.585-51.151-13.6-20.771-37.566-31.968-23.976-11.179-56.744-11.187H173.044ZM334.489,351.756,524.7,618.693H410.412L232.988,351.756Z" transform="translate(-117.106 -59.241)" fill="#0d2233"/>
        <path id="Path_434" data-name="Path 434" d="M291.954,454.68a164.916,164.916,0,0,1-65.933-67.135q-23.182-43.152-23.18-100.7,0-58.329,23.58-101.506a164.258,164.258,0,0,1,66.734-66.734q43.159-23.56,101.5-23.575,58.337,0,99.5,22.378A149.333,149.333,0,0,1,556.9,181.749q21.572,41.95,21.572,101.1c0,4.273-.134,8.788-.4,13.585s-.4,8.269-.4,10.391H254.793V246.886H503.348l-26.369,36.76a114.5,114.5,0,0,0,5.2-12.784,42.7,42.7,0,0,0,2.794-13.59q0-29.561-11.592-51.146a84.443,84.443,0,0,0-31.962-33.57q-20.386-11.988-47.556-11.988-32.79,0-55.548,14.386-22.782,14.384-35.162,41.557-12.4,27.188-12.394,67.135-.8,39.168,11.587,67.14t35.568,42.358q23.167,14.384,56.744,14.386,35.971,0,62.338-14.386t43.159-43.961l75.127,29.574q-29.576,49.562-75.127,74.726T390.66,478.656Q334.7,478.656,291.954,454.68Z" transform="translate(237.509 88.788)" fill="#0d2233"/>
        <path id="Path_435" data-name="Path 435" d="M511.945,185.339q-16.78-20.771-51.151-20.776-24.777,0-43.154,9.99a68.833,68.833,0,0,0-28.377,28.773q-9.992,18.783-9.985,43.56V470.664h-87.12V103.022h87.12v56.744q17.565-32.758,45.157-48.753Q452,95.035,489.572,95.03q62.335,0,95.1,37.967t32.769,103.5V470.664H528.73V246.886Q528.73,206.123,511.945,185.339Z" transform="translate(606.939 88.788)" fill="#0d2233"/>
        <path id="Path_436" data-name="Path 436" d="M575.6,199.56v75.928H367.005V199.56ZM514.053,71.69V567.2H429.338V71.69Z" transform="translate(916.519 -7.75)" fill="#0d2233"/>
      </g>
      <g id="Group_9897" data-name="Group 9897" transform="translate(4.723 59.241)">
        <path id="Path_437" data-name="Path 437" d="M226.009,59.241c-16.538,53.678-40.191,88.979-58.208,110.864-13.59,16.5-30.576,32.794-64.536,65.378C80.918,256.922,62.006,274.241,48.853,286.1,45,289.393-2.571,331.53,5.683,394.083c1.058,8,8.244,55.871,51.809,81.855,53.216,31.736,109.8.452,113.021-1.4,35.578-20.473,48.8-53.991,52.332-64.007,1.669,12.152,8.244,69.611-30.581,121.9-48.193,64.906-125.323,66.606-134.136,66.647a15.45,15.45,0,0,0-7.437,5.922,16,16,0,0,0-1.839,12.635H402.324a13.651,13.651,0,0,0-1.264-11.387,13.033,13.033,0,0,0-6.733-5.177c-10.031.211-72.975.488-120.233-50.078-54.6-58.429-40.73-133.859-39.225-141.306,17.858,50.771,63.211,83.679,110.931,82.672a106.923,106.923,0,0,0,83.519-44.289c3.719-5.2,24.048-34.7,18.839-72.061-3.184-22.861-16.98-40.509-44.448-74.865-17.674-22.106-32.168-37.361-46.986-52.877-30.858-32.317-51.295-49.574-80.4-87.936-2.08-2.743-3.6-4.71-5.609-7.525C257.1,133.716,238.891,103.284,226.009,59.241Z" transform="translate(-4.723 -59.241)" fill="url(#linear-gradient)"/>
        <path id="Path_438" data-name="Path 438" d="M66.007,409.692c.9,2.717,23.693,67.8,86.591,80.237,6.4,1.269,46.323,8.5,82.6-16.944,26.5-18.588,36.349-44.284,38.891-51.2a88.25,88.25,0,0,0,6.215-32.907c-.318-21.916-9.569-38.444-14.951-47.284-27.222-44.71-73.483-86.57-117.315-133.951-39.78-43-52.594-63.57-58.552-73.7a335.354,335.354,0,0,1-32.337-74.7c-21.223,82.62-9.635,137.043,5.444,171.861,15.8,36.508,40.442,63.005,37.381,105.065C97.615,368.48,80.1,393.688,66.007,409.692Z" transform="translate(164.139 -59.241)" fill="url(#linear-gradient-2)"/>
        <path id="Path_439" data-name="Path 439" d="M187.533,128.315c2.409,15.933,5.886,54.058-13.734,95.014-24.8,51.778-70.093,73.827-88.445,81.229a171.4,171.4,0,0,1-62.538,12.306,14.244,14.244,0,0,0-5.028,3.1c-5.819,5.6-4.443,14.35-4.248,15.455H367.191a13.561,13.561,0,0,0-.991-10.606,13.355,13.355,0,0,0-7.185-5.958c-10.688.185-70.838.221-117.433-47.273-57.294-58.409-43.406-137.018-42.024-144.111Q193.54,127.9,187.533,128.315Z" transform="translate(30.589 222.978)" opacity="0.87" fill="url(#linear-gradient-3)"/>
      </g>
    </g>
  </g>
</svg>
