<svg width="24" height="23" viewBox="0 0 24 23" fill="none" xmlns="http://www.w3.org/2000/svg">
<path opacity="0.37" d="M22.7735 9.00128C21.8935 7.56035 20.7836 6.27323 19.4876 5.19101L22.2169 2.46174C22.5977 2.08118 22.5977 1.46401 22.217 1.08335C21.8364 0.702686 21.2192 0.702686 20.8385 1.08335L17.8705 4.05544C16.0306 2.96258 13.9271 2.39298 11.7872 2.40813C5.75255 2.40813 2.31366 6.53908 0.800858 9.00128C-0.15237 10.543 -0.15237 12.4911 0.800859 14.0329C1.68081 15.4738 2.79078 16.761 4.08671 17.8432L1.35744 20.5724C0.976671 20.953 0.976672 21.5702 1.35733 21.9508C1.73799 22.3315 2.35516 22.3315 2.73582 21.9508L5.71063 18.9758C7.54829 20.0685 9.64925 20.6391 11.7872 20.6261C17.8218 20.6261 21.2607 16.4951 22.7735 14.0329C23.7267 12.4911 23.7267 10.543 22.7735 9.00128ZM2.46182 13.0123C1.8955 12.0959 1.89549 10.9382 2.46182 10.0218C3.76213 7.91054 6.70097 4.35761 11.7872 4.35761C13.4055 4.34854 15.0011 4.73857 16.4328 5.49318L14.4706 7.45534C12.5412 6.17434 9.9762 6.4308 8.33854 8.06846C6.70089 9.70611 6.44443 12.2711 7.72543 14.2006L5.47377 16.4522C4.27981 15.4869 3.26095 14.3233 2.46182 13.0123H2.46182ZM14.7114 11.5171C14.7114 13.1321 13.4022 14.4413 11.7872 14.4413C11.3529 14.4396 10.9247 14.3397 10.5346 14.1489L14.419 10.2645C14.6097 10.6546 14.7097 11.0829 14.7114 11.5171ZM8.86295 11.5171C8.86295 9.90209 10.1722 8.59286 11.7872 8.59286C12.2214 8.59454 12.6496 8.69452 13.0397 8.88529L9.15537 12.7696C8.96461 12.3795 8.86463 11.9513 8.86295 11.5171L8.86295 11.5171ZM21.1125 13.0123C19.8122 15.1236 16.8734 18.6766 11.7872 18.6766C10.1688 18.6856 8.57322 18.2956 7.14156 17.541L9.10371 15.5788C11.0332 16.8598 13.5982 16.6034 15.2358 14.9657C16.8735 13.3281 17.1299 10.7631 15.8489 8.83363L18.1006 6.58197C19.2945 7.54724 20.3134 8.71085 21.1125 10.0218C21.6789 10.9382 21.6789 12.0959 21.1125 13.0123L21.1125 13.0123Z" fill="black"/>
</svg>
