<svg width="12" height="12" viewBox="0 0 12 12" fill="none" xmlns="http://www.w3.org/2000/svg">
<path d="M5.67767 4.51221e-07C2.54198 4.51221e-07 0 2.54198 0 5.67767C0 8.81337 2.54198 11.3553 5.67767 11.3553C8.81337 11.3553 11.3553 8.81337 11.3553 5.67767C11.352 2.54339 8.81196 0.00338957 5.67767 0V4.51221e-07ZM5.67767 10.4091C3.0646 10.4091 0.946279 8.29075 0.946279 5.67767C0.946279 3.0646 3.0646 0.94628 5.67767 0.94628C8.29075 0.94628 10.4091 3.0646 10.4091 5.67767C10.4062 8.28956 8.28956 10.4062 5.67767 10.4091Z" fill="#1467B0"/>
<path d="M5.67675 4.73145H5.20361C4.9423 4.73145 4.73047 4.94328 4.73047 5.20459C4.73047 5.46589 4.9423 5.67772 5.20361 5.67772H5.67675V8.51656C5.67675 8.77787 5.88858 8.9897 6.14989 8.9897C6.4112 8.9897 6.62303 8.77787 6.62303 8.51656V5.67772C6.62303 5.15511 6.19936 4.73145 5.67675 4.73145Z" fill="#1467B0"/>
<path d="M6.38817 3.07494C6.38817 3.46691 6.07042 3.78465 5.67846 3.78465C5.2865 3.78465 4.96875 3.46691 4.96875 3.07494C4.96875 2.68298 5.2865 2.36523 5.67846 2.36523C6.07042 2.36523 6.38817 2.68298 6.38817 3.07494Z" fill="#1467B0"/>
</svg>
